<svg xmlns="http://www.w3.org/2000/svg" width="213" height="82" viewBox="0 0 213 82" fill="none">
<path d="M13.8753 36.094C13.436 39.6604 13.8438 43.2696 13.274 46.8075C12.3457 52.5711 10.7956 58.1813 8.86949 63.678C7.86245 66.5519 10.1751 67.3752 12.816 67.4198C18.8977 67.5226 25.006 66.6198 31.1062 66.5939C36.2056 66.5723 41.3685 66.169 46.4505 66.5855" stroke="white" stroke-width="10.3515" stroke-linecap="round"/>
<path d="M36.088 29.9012C34.137 31.4921 33.1355 34.7625 32.3715 37.0209C31.8009 38.7074 31.7867 40.4155 31.6346 42.17C31.4204 44.6399 31.3337 46.9422 32.1092 49.3328C32.7231 51.225 33.3704 52.5707 35.4433 52.8624C40.7011 53.6023 44.1765 50.1748 47.2278 46.343C51.2477 41.2951 54.4129 35.5727 56.5394 29.4898C56.7387 28.9195 58.0918 26.0059 57.7042 25.357C57.4977 25.0114 57.233 26.01 57.0068 26.343C56.4992 27.0906 55.9825 27.8274 55.546 28.6205C54.3563 30.7825 53.7026 33.1717 52.7724 35.4459C51.5159 38.5174 49.853 41.3913 48.7133 44.5133C48.0121 46.4342 46.7126 49.6199 47.46 51.7255" stroke="white" stroke-width="10.3515" stroke-linecap="round"/>
<path d="M58.5886 64.694C59.7443 62.4612 61.4596 60.5611 62.8549 58.4801C65.9561 53.8551 68.5741 48.5748 70.4786 43.3404C72.4948 37.7991 71.7359 31.8601 73.2851 26.2047C73.6541 24.8576 73.7198 25.0448 74.2076 26.3069C75.2741 29.0659 77.0345 31.5391 78.7534 33.9313C80.5518 36.4339 82.9792 38.4417 85.353 40.3433C88.5267 42.8858 91.6382 37.8301 93.3174 35.5828C96.6801 31.0825 98.6709 26.0318 101.538 21.292C102.211 20.1798 102.915 23.2755 102.993 23.5011C105.221 29.9039 105.657 36.742 104.218 43.3685C102.358 51.9322 97.797 59.8534 93.363 67.3355" stroke="white" stroke-width="10.3515" stroke-linecap="round"/>
<path d="M112.987 68.8293C115.132 68.8199 117.414 69.4545 119.532 69.7154C124.912 70.3782 130.32 70.7896 135.731 71.0951C138.544 71.254 141.561 71.6633 144.386 71.4201C144.608 71.401 144.811 71.3094 145.019 71.2358" stroke="white" stroke-width="10.3515" stroke-linecap="round"/>
<path d="M120.114 20.1365C118.496 23.0857 118.7 26.5035 118.755 29.7761C118.799 32.3958 118.87 35.0229 118.835 37.6429C118.804 40.0156 118.934 42.4205 118.793 44.7877C118.644 47.3047 118.15 49.8044 117.951 52.3242C117.801 54.2146 117.418 56.053 117.343 57.951C117.277 59.6301 116.947 61.5329 116.261 63.0748C115.668 64.4071 113.968 65.9392 114.185 67.4373" stroke="white" stroke-width="10.3515" stroke-linecap="round"/>
<path d="M123.839 19.0559C127.494 17.7586 132.185 18.9618 135.943 19.1101" stroke="white" stroke-width="10.3515" stroke-linecap="round"/>
<path d="M124.86 45.7629C127.427 45.7979 129.977 46.3325 132.535 46.5431C133.682 46.6375 134.786 46.671 135.904 46.9182" stroke="white" stroke-width="10.3515" stroke-linecap="round"/>
<path d="M158.379 75.5073C158.149 74.86 158.173 74.378 158.421 73.7058C159.404 71.0431 161.114 68.708 161.917 65.9632C162.647 63.4645 162.42 60.8221 162.405 58.2567C162.389 55.5518 162.545 52.8538 162.566 50.1504C162.6 45.7453 162.732 41.3126 162.256 36.9255C161.686 31.6777 160.638 26.4262 159.844 21.2048C159.434 18.5108 159.497 15.4241 158.671 12.8168C156.939 7.34468 162.185 23.7728 164.562 28.9972C168.423 37.4822 172.905 46.1264 177.957 53.9703C180.151 57.3764 182.517 60.6814 184.534 64.1973C185.189 65.3389 186.1 66.1034 186.659 67.3295C186.764 67.5604 187.787 69.9056 188.065 69.8881C188.663 69.8505 189.721 66.1369 189.816 65.8959C191.322 62.0479 192.914 58.2592 193.911 54.2383C195.648 47.233 196.364 40.469 195.773 33.2799C195.501 29.9714 193.317 10.6059 193.963 7.41108" stroke="white" stroke-width="10.3515" stroke-linecap="round"/>
</svg>